<svg width="39" height="38" viewBox="0 0 39 38" fill="none" xmlns="http://www.w3.org/2000/svg">
<g clip-path="url(#clip0_104_55)">
<path d="M33.9986 19.0394C33.9986 15.3298 34.0007 11.6212 33.9976 7.91164C33.9955 5.61571 32.3887 4.00261 30.1002 4.00157C22.6938 3.99948 15.2884 3.99948 7.882 4.00157C5.61957 4.00261 4.00339 5.62302 4.00235 7.88971C3.99922 15.2954 3.99922 22.702 4.00235 30.1077C4.00339 32.3754 5.61852 33.9969 7.87991 33.9979C15.2989 34.0021 22.7178 33.9979 30.1367 34C30.5032 34 30.8634 33.9666 31.2163 33.8674C32.9097 33.3934 33.9934 31.963 33.9965 30.1682C34.0028 26.4586 33.9986 22.749 33.9986 19.0394ZM31.4982 30.0315C31.4982 31.0212 31.0273 31.4994 30.049 31.4994H7.94882C6.9883 31.4994 6.50073 31.0181 6.50073 30.068V7.92834C6.50073 6.9918 6.98517 6.50109 7.91019 6.50109C15.303 6.50004 22.6959 6.50004 30.0887 6.50109C31.0096 6.50109 31.4982 6.99702 31.4982 7.93043C31.4992 11.6275 31.4992 15.3235 31.4992 19.0196C31.4992 22.7156 31.4992 26.3605 31.4982 30.0315Z" fill="#ffffff"/>
<path d="M11 17.5L18.5 24.5L38 -2.5" stroke="#ffffff" stroke-width="3"/>
</g>
<defs>
<clipPath id="clip0_104_55">
<rect width="38" height="37" fill="white" transform="translate(0.131836 0.379883)"/>
</clipPath>
</defs>
</svg>
